<svg xmlns="http://www.w3.org/2000/svg" width="640" height="360" viewBox="0 0 640 360">
  <defs>
    <linearGradient id="bg2" x1="0%" y1="0%" x2="100%" y2="100%">
      <stop offset="0%" stop-color="#0a0f1e"/>
      <stop offset="100%" stop-color="#120d22"/>
    </linearGradient>
  </defs>
  <rect width="640" height="360" fill="url(#bg2)"/>
  <!-- Radial glow -->
  <ellipse cx="320" cy="180" rx="280" ry="180" fill="#7c3aed" fill-opacity="0.06"/>
  <ellipse cx="320" cy="180" rx="160" ry="100" fill="#4fffb0" fill-opacity="0.04"/>
  <!-- Title bar -->
  <rect x="100" y="40" width="440" height="50" rx="10" fill="#0d1220" stroke="#7c3aed" stroke-width="1" stroke-opacity="0.5"/>
  <text x="320" y="72" font-family="monospace" font-size="18" font-weight="bold" fill="#4fffb0" text-anchor="middle" letter-spacing="2">⚡ QUIZ ARENA</text>
  <!-- Leaderboard -->
  <rect x="100" y="110" width="200" height="200" rx="8" fill="#0d1220" stroke="#7c3aed" stroke-width="0.8" stroke-opacity="0.4"/>
  <text x="200" y="133" font-family="monospace" font-size="10" fill="#a78bfa" text-anchor="middle">LEADERBOARD</text>
  <!-- Players -->
  <rect x="115" y="145" width="170" height="28" rx="5" fill="#4fffb0" fill-opacity="0.1" stroke="#4fffb0" stroke-width="0.5" stroke-opacity="0.4"/>
  <text x="130" y="163" font-family="monospace" font-size="9" fill="#4fffb0">🥇 Player1</text>
  <text x="255" y="163" font-family="monospace" font-size="9" fill="#4fffb0" text-anchor="end">980</text>
  <rect x="115" y="181" width="170" height="28" rx="5" fill="#7c3aed" fill-opacity="0.1"/>
  <text x="130" y="199" font-family="monospace" font-size="9" fill="#a78bfa">🥈 Player2</text>
  <text x="255" y="199" font-family="monospace" font-size="9" fill="#a78bfa" text-anchor="end">860</text>
  <rect x="115" y="217" width="170" height="28" rx="5" fill="#1a2540"/>
  <text x="130" y="235" font-family="monospace" font-size="9" fill="#8896b0">🥉 Player3</text>
  <text x="255" y="235" font-family="monospace" font-size="9" fill="#8896b0" text-anchor="end">740</text>
  <rect x="115" y="253" width="170" height="28" rx="5" fill="#1a2540"/>
  <text x="130" y="271" font-family="monospace" font-size="9" fill="#4a5568">4. Player4</text>
  <text x="255" y="271" font-family="monospace" font-size="9" fill="#4a5568" text-anchor="end">600</text>
  <!-- Question card -->
  <rect x="320" y="110" width="220" height="140" rx="8" fill="#0d1220" stroke="#4fffb0" stroke-width="0.8" stroke-opacity="0.4"/>
  <text x="430" y="133" font-family="monospace" font-size="10" fill="#4fffb0" fill-opacity="0.6" text-anchor="middle">SAVOL 3/10</text>
  <rect x="335" y="140" width="190" height="4" rx="2" fill="#4fffb0" fill-opacity="0.3"/>
  <rect x="335" y="140" width="60" height="4" rx="2" fill="#4fffb0"/>
  <rect x="335" y="158" width="190" height="30" rx="5" fill="#1a2540"/>
  <text x="430" y="177" font-family="monospace" font-size="9" fill="#e8edf5" text-anchor="middle">Django nima?</text>
  <!-- Answer options -->
  <rect x="335" y="198" width="88" height="22" rx="4" fill="#4fffb0" fill-opacity="0.15" stroke="#4fffb0" stroke-width="0.5" stroke-opacity="0.5"/>
  <text x="379" y="212" font-family="monospace" font-size="8" fill="#4fffb0" text-anchor="middle">A) Framework</text>
  <rect x="432" y="198" width="88" height="22" rx="4" fill="#1a2540"/>
  <text x="476" y="212" font-family="monospace" font-size="8" fill="#8896b0" text-anchor="middle">B) Language</text>
  <rect x="335" y="228" width="88" height="22" rx="4" fill="#1a2540"/>
  <text x="379" y="242" font-family="monospace" font-size="8" fill="#8896b0" text-anchor="middle">C) Database</text>
  <rect x="432" y="228" width="88" height="22" rx="4" fill="#1a2540"/>
  <text x="476" y="242" font-family="monospace" font-size="8" fill="#8896b0" text-anchor="middle">D) Server</text>
  <!-- Timer -->
  <rect x="320" y="268" width="220" height="34" rx="8" fill="#0d1220" stroke="#ffc947" stroke-width="0.8" stroke-opacity="0.5"/>
  <text x="430" y="283" font-family="monospace" font-size="8" fill="#ffc947" fill-opacity="0.7" text-anchor="middle">⏱ TIMER</text>
  <rect x="335" y="288" width="190" height="5" rx="2" fill="#1a2540"/>
  <rect x="335" y="288" width="100" height="5" rx="2" fill="#ffc947" fill-opacity="0.7"/>
  <!-- WebSocket indicator -->
  <circle cx="565" cy="55" r="5" fill="#4fffb0" fill-opacity="0.8"/>
  <text x="555" y="76" font-family="monospace" font-size="8" fill="#4fffb0" fill-opacity="0.5" text-anchor="middle">WS</text>
  <!-- Bottom label -->
  <text x="320" y="338" font-family="monospace" font-size="10" fill="#7c3aed" fill-opacity="0.5" text-anchor="middle" letter-spacing="3">DJANGO CHANNELS · WEBSOCKET · REAL-TIME</text>
</svg>
